{"title":"Enough Said 2013 HDRip x264 AC3-MiLLENiUM","uid":9419544,"size":829051762,"categoryP":"video","categoryS":"movies","magnet":"?xt=urn:btih:47a1e87c08e20449c6e24e5682625d5809af9cf3&amp;dn=Enough+Said+2013+HDRip+x264+AC3-MiLLENiUM&amp;tr=udp%3A%2F%2Ftracker.openbittorrent.com%3A80&amp;tr=udp%3A%2F%2Fopen.demonii.com%3A1337&amp;tr=udp%3A%2F%2Ftracker.coppersurfer.tk%3A6969&amp;tr=udp%3A%2F%2Fexodus.desync.com%3A6969","seeders":6,"leechers":0,"uploader":"xxxlavalxxx","files":-1,"time":1388538029,"description":" &lt;a href=&quot;http://www.imdb.com/title/tt2390361/&quot; rel=&quot;nofollow&quot; target=&quot;_NEW&quot;&gt;http://www.imdb.com/title/tt2390361/&lt;/a&gt;\n\n\nA divorced woman who decides to pursue the man she's interested in learns he's her new friend's ex-husband.\n\nDirector: Nicole Holofcener\nWriter: Nicole Holofcener\nStars: Julia Louis-Dreyfus, James Gandolfini, Catherine Keener\nGenres: Comedy\nCountry: USA\nLanguage: English\n\n\nEnough Said 2013 HDRip x264 AC3-MiLLENiUM                  \n\nGeneral\n\nSource...............: 720p.WEB-DL [THANKS]\nIMDb Information.... : http://www.imdb.com/title/tt2390361/\nSample Included......: yes\n\nGeneral\nComplete name                            : Enough Said 2013 HDRip x264 AC3-MiLLENiUM.mkv\nFormat                                   : Matroska\nFormat version                           : Version 2\nFile size                                : 776 MiB\nDuration                                 : 1h 33mn\nOverall bit rate mode                    : Variable\nOverall bit rate                         : 1 161 Kbps\nEncoded date                             : UTC 2013-12-31 21:08:49\nWriting application                      : mkvmerge v6.6.0 ('The Edge Of The In Between') built on Dec  1 2013 17:55:00\nWriting library                          : libebml v1.3.0 + libmatroska v1.4.1\n\nVideo\nID                                       : 1\nFormat                                   : AVC\nFormat/Info                              : Advanced Video Codec\nFormat profile                           : &lt;a class=&quot;__cf_email__&quot; href=&quot;/cdn-cgi/l/email-protection&quot; data-cfemail=&quot;f6be9f919eb6bac2d8c7&quot;&gt;[email&amp;#160;protected]&lt;/a&gt;&lt;script cf-hash='f9e31' type=&quot;text/javascript&quot;&gt;\n/* &lt;![CDATA[ */!function(){try{var t=&quot;currentScript&quot;in document?document.currentScript:function(){for(var t=document.getElementsByTagName(&quot;script&quot;),e=t.length;e--;)if(t[e].getAttribute(&quot;cf-hash&quot;))return t[e]}();if(t&amp;&amp;t.previousSibling){var e,r,n,i,c=t.previousSibling,a=c.getAttribute(&quot;data-cfemail&quot;);if(a){for(e=&quot;&quot;,r=parseInt(a.substr(0,2),16),n=2;a.length-n;n+=2)i=parseInt(a.substr(n,2),16)^r,e+=String.fromCharCode(i);e=document.createTextNode(e),c.parentNode.replaceChild(e,c)}}}catch(u){}}();/* ]]&gt; */&lt;/script&gt;\nFormat settings, CABAC                   : Yes\nFormat settings, ReFrames                : 3 frames\nCodec ID                                 : V_MPEG4/ISO/AVC\nDuration                                 : 1h 33mn\nBit rate mode                            : Variable\nBit rate                                 : 754 Kbps\nMaximum bit rate                         : 40.0 Mbps\nWidth                                    : 720 pixels\nHeight                                   : 384 pixels\nDisplay aspect ratio                     : 1.85:1\nFrame rate mode                          : Constant\nFrame rate                               : 23.976 fps\nColor space                              : YUV\nChroma subsampling                       : 4:2:0\nBit depth                                : 8 bits\nScan type                                : Progressive\nBits/(Pixel*Frame)                       : 0.114\nStream size                              : 504 MiB (65%)\nWriting library                          : x264 core 140 r2377 1ca7bb9\n\nAudio\nID                                       : 2\nFormat                                   : AC-3\nFormat/Info                              : Audio Coding 3\nMode extension                           : CM (complete main)\nFormat settings, Endianness              : Big\nCodec ID                                 : A_AC3\nDuration                                 : 1h 33mn\nBit rate mode                            : Constant\nBit rate                                 : 384 Kbps\nChannel(s)                               : 6 channels\nChannel positions                        : Front: L C R, Side: L R, LFE\nSampling rate                            : 48.0 KHz\nBit depth                                : 16 bits\nCompression mode                         : Lossy\nStream size                              : 256 MiB (33%)\nLanguage                                 : English\nDefault                                  : Yes\nForced                                   : No\n\n\n\n\nscreens\n\n &lt;a href=&quot;\nhttp://i.imgur.com/cgaB6R5.png&quot; rel=&quot;nofollow&quot; target=&quot;_NEW&quot;&gt;\nhttp://i.imgur.com/cgaB6R5.png&lt;/a&gt; &lt;a href=&quot;\nhttp://i.imgur.com/bUiwLWG.png&quot; rel=&quot;nofollow&quot; target=&quot;_NEW&quot;&gt;\nhttp://i.imgur.com/bUiwLWG.png&lt;/a&gt; &lt;a href=&quot;\nhttp://i.imgur.com/h83YE3V.png&quot; rel=&quot;nofollow&quot; target=&quot;_NEW&quot;&gt;\nhttp://i.imgur.com/h83YE3V.png&lt;/a&gt; &lt;a href=&quot;\nhttp://i.imgur.com/A6k2jUN.png&quot; rel=&quot;nofollow&quot; target=&quot;_NEW&quot;&gt;\nhttp://i.imgur.com/A6k2jUN.png&lt;/a&gt; &lt;a href=&quot;\nhttp://i.imgur.com/MmtnEqU.png&quot; rel=&quot;nofollow&quot; target=&quot;_NEW&quot;&gt;\nhttp://i.imgur.com/MmtnEqU.png&lt;/a&gt;","torrent":{"xt":"urn:btih:47a1e87c08e20449c6e24e5682625d5809af9cf3","amp;dn":"Enough+Said+2013+HDRip+x264+AC3-MiLLENiUM","amp;tr":["udp%3A%2F%2Ftracker.openbittorrent.com%3A80","udp%3A%2F%2Fopen.demonii.com%3A1337","udp%3A%2F%2Ftracker.coppersurfer.tk%3A6969","udp%3A%2F%2Fexodus.desync.com%3A6969"],"infoHash":"47a1e87c08e20449c6e24e5682625d5809af9cf3","infoHashBuffer":{"type":"Buffer","data":[71,161,232,124,8,226,4,73,198,226,78,86,130,98,93,88,9,175,156,243]},"announce":[],"urlList":[]}}